<mxfile host="app.diagrams.net" modified="2024-03-23T23:57:56.111Z" agent="Mozilla/5.0 (X11; Linux x86_64) AppleWebKit/537.36 (KHTML, like Gecko) Chrome/123.0.0.0 Safari/537.36" etag="tFZSl22JlemxWk1iCCbv" version="24.0.7" type="device">
  <diagram name="Page-1" id="xfAEuaC3LWZkyEtiJaXI">
    <mxGraphModel dx="1434" dy="820" grid="1" gridSize="10" guides="1" tooltips="1" connect="1" arrows="1" fold="1" page="1" pageScale="1" pageWidth="850" pageHeight="1100" math="0" shadow="0">
      <root>
        <mxCell id="0" />
        <mxCell id="1" parent="0" />
        <mxCell id="tRU7MHPU-XkeyfeKwUlJ-7" style="edgeStyle=orthogonalEdgeStyle;rounded=0;orthogonalLoop=1;jettySize=auto;html=1;entryX=0;entryY=0.5;entryDx=0;entryDy=0;" edge="1" parent="1" source="tRU7MHPU-XkeyfeKwUlJ-1" target="tRU7MHPU-XkeyfeKwUlJ-6">
          <mxGeometry relative="1" as="geometry" />
        </mxCell>
        <mxCell id="tRU7MHPU-XkeyfeKwUlJ-1" value="Proponente&lt;div&gt;-Nome&lt;/div&gt;&lt;div&gt;-Cpf&lt;/div&gt;&lt;div&gt;-Data de Nascimento&lt;/div&gt;&lt;div&gt;-Salario&lt;/div&gt;&lt;div&gt;-Valor Recolhido&lt;/div&gt;&lt;div&gt;-EndereÃ§o (logradouro, numero, bairro, cidade, estado e cep)&lt;/div&gt;" style="rounded=0;whiteSpace=wrap;html=1;align=left;" vertex="1" parent="1">
          <mxGeometry x="110" y="265" width="160" height="180" as="geometry" />
        </mxCell>
        <mxCell id="tRU7MHPU-XkeyfeKwUlJ-4" value="Aliquotas&lt;div&gt;-id&lt;/div&gt;&lt;div&gt;-range_min&lt;/div&gt;&lt;div&gt;-range_max&lt;/div&gt;&lt;div&gt;-aliquota&lt;/div&gt;" style="rounded=0;whiteSpace=wrap;html=1;align=left;" vertex="1" parent="1">
          <mxGeometry x="620" y="140" width="120" height="90" as="geometry" />
        </mxCell>
        <mxCell id="tRU7MHPU-XkeyfeKwUlJ-5" value="Telefones Tipo&lt;div&gt;-id&lt;/div&gt;&lt;div&gt;-Descricao&lt;/div&gt;" style="rounded=0;whiteSpace=wrap;html=1;align=left;" vertex="1" parent="1">
          <mxGeometry x="400" y="160" width="120" height="50" as="geometry" />
        </mxCell>
        <mxCell id="tRU7MHPU-XkeyfeKwUlJ-8" style="edgeStyle=orthogonalEdgeStyle;rounded=0;orthogonalLoop=1;jettySize=auto;html=1;entryX=0.5;entryY=1;entryDx=0;entryDy=0;" edge="1" parent="1" source="tRU7MHPU-XkeyfeKwUlJ-6" target="tRU7MHPU-XkeyfeKwUlJ-5">
          <mxGeometry relative="1" as="geometry" />
        </mxCell>
        <mxCell id="tRU7MHPU-XkeyfeKwUlJ-6" value="Contatos&lt;div&gt;-id&lt;/div&gt;&lt;div&gt;-id do proponente&lt;/div&gt;&lt;div&gt;-id do tipo de telefone&lt;/div&gt;&lt;div&gt;-numero&lt;/div&gt;" style="rounded=0;whiteSpace=wrap;html=1;align=left;" vertex="1" parent="1">
          <mxGeometry x="380" y="310" width="160" height="90" as="geometry" />
        </mxCell>
      </root>
    </mxGraphModel>
  </diagram>
</mxfile>
